<svg id="Layer_1" data-name="Layer 1" xmlns="http://www.w3.org/2000/svg" xmlns:xlink="http://www.w3.org/1999/xlink" viewBox="0 0 382.02 311.44"><defs><style>.cls-1{fill:#fff;}.cls-2,.cls-3{fill:none;}.cls-2,.cls-3,.cls-5,.cls-7{stroke:#231f20;stroke-miterlimit:10;}.cls-3{stroke-dasharray:4.98 4.98;}.cls-4,.cls-6,.cls-8,.cls-9{fill:#231f20;}.cls-5{fill:url(#Fading_Sky);}.cls-6{font-size:24px;}.cls-6,.cls-8{font-family:MyriadPro-Regular, Myriad Pro;}.cls-7{fill:url(#Orange_Yellow);}.cls-8{font-size:23.68px;}.cls-9{font-size:15px;font-family:Palatino-Roman, Palatino;}</style><linearGradient id="Fading_Sky" x1="123.6" y1="207.87" x2="157.3" y2="207.87" gradientUnits="userSpaceOnUse"><stop offset="0" stop-color="#2484c6"/><stop offset="1" stop-color="#2484c6" stop-opacity="0"/></linearGradient><linearGradient id="Orange_Yellow" x1="189.85" y1="127.51" x2="204.42" y2="127.51" gradientUnits="userSpaceOnUse"><stop offset="0" stop-color="#fff33b"/><stop offset="0.04" stop-color="#fee72e"/><stop offset="0.12" stop-color="#fed51b"/><stop offset="0.2" stop-color="#fdca10"/><stop offset="0.28" stop-color="#fdc70c"/><stop offset="0.67" stop-color="#f3903f"/><stop offset="0.89" stop-color="#ed683c"/><stop offset="1" stop-color="#e93e3a"/></linearGradient></defs><path class="cls-1" d="M47.19,100c13.54-2.45,100.34-16.69,174.16,42.7,52.63,42.34,68.5,97.84,73,116.85"/><path class="cls-2" d="M47.19,100l2.46-.43"/><path class="cls-3" d="M54.57,98.83C80.4,95.26,156,90.1,221.35,142.7c44.89,36.11,63,81.81,70.22,106.26"/><path class="cls-2" d="M292.26,251.36l.66,2.41"/><polygon class="cls-4" points="288.58 251.99 292.56 252.58 295.75 250.12 294.38 259.55 288.58 251.99"/><circle class="cls-5" cx="140.45" cy="207.87" r="16.85"/><text class="cls-6" transform="translate(134.67 214.61)">+</text><circle class="cls-7" cx="197.14" cy="127.51" r="7.29"/><text class="cls-8" transform="translate(188.41 134.53) scale(2.21 1)">-</text><path class="cls-1" d="M300.85,77.6c-1.11,1.26-13.77-10.54-16.19-9.14-1.73,1,4.28,17.29,2,18.35-1.91.91-11.1-13.86-13.27-12.92-2,.86,2.61,17.62.47,18.49S263.28,78.1,261.17,79s2.23,17.67.15,18.5S250.63,83.17,248.58,84s2.46,17.63.46,18.49c-2.17.94-11.36-13.82-13.28-12.91-2.23,1.06,3.78,17.33,2.05,18.34-2.42,1.4-15.08-10.4-16.19-9.14"/><path class="cls-2" d="M300.85,77.6c-1.11,1.26-13.77-10.54-16.19-9.14-1.73,1,4.28,17.29,2,18.35-1.91.91-11.1-13.86-13.27-12.92-2,.86,2.61,17.62.47,18.49S263.28,78.1,261.17,79s2.23,17.67.15,18.5S250.63,83.17,248.58,84s2.46,17.63.46,18.49c-2.17.94-11.36-13.82-13.28-12.91-2.23,1.06,3.78,17.33,2.05,18.34-2.42,1.4-15.08-10.4-16.19-9.14"/><text class="cls-9" transform="translate(269.66 110.11) scale(2.21 1)">γ</text><text/></svg>